HIERARCHY
ROOT Hips
{
  OFFSET 0 0 0
  CHANNELS 6 Xposition Yposition Zposition Zrotation Yrotation Xrotation
  JOINT LeftThigh
  {
    OFFSET 8.409438 0 -5.917753
    CHANNELS 3 Zrotation Yrotation Xrotation
    JOINT LeftLeg
    {
      OFFSET 0 0 -42.358652
      CHANNELS 3 Zrotation Yrotation Xrotation
      JOINT LeftFoot
      {
        OFFSET 0 0 -39.357303
        CHANNELS 3 Zrotation Yrotation Xrotation
      }
    }
  }
  JOINT RightThigh
  {
    OFFSET -8.409438 0 -5.917753
    CHANNELS 3 Zrotation Yrotation Xrotation
    JOINT RightLeg
    {
      OFFSET 0 0 -42.358652
      CHANNELS 3 Zrotation Yrotation Xrotation
      JOINT RightFoot
      {
        OFFSET 0 0 -39.357303
        CHANNELS 3 Zrotation Yrotation Xrotation
      }
    }
  }
  JOINT SpineLow
  {
    OFFSET 0 0 4.719101
    CHANNELS 3 Zrotation Yrotation Xrotation
    JOINT SpineMid
    {
      OFFSET 0 0 12.899191
      CHANNELS 3 Zrotation Yrotation Xrotation
      JOINT Chest
      {
        OFFSET 0 0 12.899191
        CHANNELS 3 Zrotation Yrotation Xrotation
        JOINT LeftShoulder
        {
          OFFSET 7.550562 1.41573 9.438202
          CHANNELS 3 Zrotation Yrotation Xrotation
          JOINT LeftArm
          {
            OFFSET 9.155056 0 4.247191
            CHANNELS 3 Zrotation Yrotation Xrotation
            JOINT LeftForearm
            {
              OFFSET 0 0 25.771955
              CHANNELS 3 Zrotation Yrotation Xrotation
              JOINT LeftHand
              {
                OFFSET 0 0 25.197169
                CHANNELS 3 Zrotation Yrotation Xrotation
              }
            }
          }
        }
        JOINT RightShoulder
        {
          OFFSET -7.550562 1.41573 9.438202
          CHANNELS 3 Zrotation Yrotation Xrotation
          JOINT RightArm
          {
            OFFSET -9.155056 0 4.247191
            CHANNELS 3 Zrotation Yrotation Xrotation
            JOINT RightForearm
            {
              OFFSET 0 0 -25.771955
              CHANNELS 3 Zrotation Yrotation Xrotation
              JOINT RightHand
              {
                OFFSET 0 0 -25.197169
                CHANNELS 3 Zrotation Yrotation Xrotation
              }
            }
          }
        }
        JOINT Neck
        {
          OFFSET 0 0 15.101124
          CHANNELS 3 Zrotation Yrotation Xrotation
          JOINT Head
          {
            OFFSET 0 0 11.325843
            CHANNELS 3 Zrotation Yrotation Xrotation
            End Site
            {
              OFFSET 0 0 14.157303
            }
          }
        }
      }
    }
  }
}
MOTION
Frames: 17
Frame Time: 0.0
0.0  93.25843  0.0  -2.72068  -28.160262  -93.463164  49.528864  -25.55074  -26.038665  -0.035464  9.269353  23.729097  -0.141512  2.529545  0.003951  4.021313  16.813099  7.817716  -27.786464  -1.092582  15.548643  4.12284  3.713705  -4.109896  3.465635  -0.890836  -0.063086  9.479196  -2.420229  -0.299673  9.479196  -2.420229  -0.299673  -28.790608  19.611529  -2.587494  -161.547777  62.189813  -98.212907  -29.649136  -12.132986  70.081642  39.095777  -13.935624  12.772015  -6.549417  -14.284077  15.277051  108.261873  37.683991  33.227608  -14.345614  -16.982294  -108.718053  74.794917  25.393683  15.298867  12.04996  1.023807  10.446594  9.022876  0.974685  7.818172  
0.0  93.25843  0.0  -2.775823  -27.353488  -93.344691  49.944866  -25.263111  -26.567046  0.709627  9.534398  24.375717  0.058522  2.653218  0.172509  3.561311  17.068061  8.334121  -28.42815  -1.046406  14.756859  3.814132  3.476669  -3.839337  3.565018  -0.87131  -0.101098  9.752076  -2.360798  -0.404094  9.752076  -2.360798  -0.404094  -28.659697  19.463918  -2.640556  -165.399726  61.21485  -101.33608  -29.588757  -12.169727  69.414878  39.225237  -13.51416  12.90839  -6.062383  -14.630068  15.108309  107.94351  39.218797  32.565667  -15.456591  -17.183837  -107.468722  75.219988  24.881191  14.745142  11.550731  0.87225  10.348138  8.651071  0.850481  7.747766  
0.0  93.25843  0.0  -2.461489  -28.084439  -93.761821  51.516505  -25.210396  -26.499282  1.718634  9.89868  25.079556  0.314961  2.757674  0.263726  4.698237  17.306594  9.41692  -29.460447  -1.021912  13.780008  3.837002  3.404801  -3.609751  3.915283  -0.824938  -0.075491  10.708372  -2.235889  -0.339191  10.708371  -2.235889  -0.339191  -28.535503  19.333894  -2.660489  -169.23275  60.133011  -104.540786  -29.435972  -12.20115  68.708629  39.332162  -12.980956  13.144303  -5.744891  -15.038928  14.840426  107.798203  40.575362  31.838046  -16.84228  -17.062367  -105.962501  75.709016  24.329882  14.544113  10.885552  0.659311  10.234734  8.155758  0.677318  7.667119  
0.0  93.25843  0.0  -2.493016  -27.380503  -93.687799  51.685786  -25.104522  -26.64093  2.950684  10.284222  25.678834  0.495181  2.877384  0.369773  4.230855  17.609433  10.022954  -30.054236  -1.082778  13.019754  3.762092  3.235718  -3.420268  4.059428  -0.797533  -0.13353  11.104031  -2.150536  -0.497611  11.10403  -2.150535  -0.497611  -28.402125  19.267384  -2.515381  -173.048525  58.911228  -107.756668  -29.248472  -12.230674  67.978946  39.286959  -12.364796  13.450487  -5.207279  -15.453773  14.767238  107.554038  42.099102  31.165299  -18.527248  -16.717884  -104.240548  76.194329  23.790938  14.651976  10.275064  0.447007  10.242395  7.701343  0.50785  7.676825  
0.0  93.25843  0.0  -2.424595  -26.79688  -93.737632  51.749776  -25.055263  -26.522125  4.269881  10.840108  26.221663  0.590047  2.937565  0.391133  3.907728  17.987159  10.754601  -30.433852  -1.269734  12.25504  3.557432  3.149546  -3.224654  4.150648  -0.791522  -0.224914  11.35623  -2.117668  -0.748536  11.35623  -2.117668  -0.748536  -28.153808  19.481195  -2.218023  -176.506695  57.680782  -111.232526  -29.389396  -11.958015  67.368827  39.128145  -11.640192  13.713895  -4.336639  -15.704619  14.915488  107.604145  43.463677  30.618081  -20.326409  -16.515144  -102.438488  76.510297  23.367622  14.791953  9.751035  0.25948  10.44541  7.31137  0.361554  7.832277  
0.0  93.25843  0.0  -2.387622  -25.909408  -93.696512  51.422727  -24.90396  -26.334661  5.532157  11.497845  26.696215  0.293243  2.97656  0.281706  3.396568  18.348258  11.498846  -30.565964  -1.561381  11.505146  3.246613  3.229051  -3.040957  4.27329  -0.765363  -0.314888  11.693755  -2.028964  -0.992889  11.693755  -2.028964  -0.992889  -28.131213  19.689418  -1.833985  179.785651  56.548843  -114.823618  -29.984573  -11.145221  66.887784  39.050541  -10.832973  13.857256  -3.746731  -16.055072  14.912039  107.656931  44.887849  30.188378  -21.898896  -16.806454  -100.715684  76.578871  23.130823  14.718312  9.049919  0.029077  10.626512  6.789373  0.179323  7.971532  
0.0  93.25843  0.0  -2.095989  -25.420405  -93.797015  51.298811  -24.490554  -25.853407  4.881554  13.657217  25.768023  1.731149  2.354652  0.958034  3.321742  18.980264  12.219687  -30.522318  -1.872527  10.92788  2.863925  3.440463  -2.851033  4.358456  -0.715206  -0.420747  11.928396  -1.871911  -1.27472  11.928396  -1.871911  -1.27472  -27.563813  20.025534  -1.240848  176.623145  55.412558  -118.360378  -30.806072  -9.583842  66.471963  39.233618  -9.992329  14.089999  -2.570354  -16.404206  15.061714  107.617642  46.270174  29.660819  -23.020587  -17.716208  -99.111036  76.42229  23.067304  14.287747  8.68715  -0.222269  10.932927  6.521811  -0.011257  8.204815  
0.0  93.25843  0.0  -1.969472  -24.224835  -93.826167  50.379213  -23.765643  -25.280176  5.16443  14.170046  25.872693  1.469107  2.393114  0.677455  2.619277  19.584648  12.819466  -30.436905  -2.082373  10.67184  2.692461  3.84017  -2.659961  4.45324  -0.656833  -0.494747  12.187832  -1.697406  -1.468052  12.187833  -1.697406  -1.468052  -27.519079  20.227081  -0.776303  173.750446  54.170355  -121.358367  -31.266639  -7.707191  65.820006  39.73848  -9.234951  14.554917  -1.927027  -16.828236  14.836249  107.224315  47.677947  28.960906  -23.662811  -19.165944  -97.6329  76.080424  23.179158  13.50703  7.898266  -0.44395  11.040501  5.93399  -0.190351  8.287717  
0.0  93.25843  0.0  -1.543362  -23.392114  -94.088221  49.675917  -22.487065  -24.28383  4.934085  14.293376  25.588097  1.541031  2.418339  0.56499  2.494129  20.543818  13.408556  -30.322955  -2.035054  10.808731  2.66942  4.104275  -2.648262  4.62312  -0.575251  -0.531989  12.650717  -1.464257  -1.55797  12.650717  -1.464257  -1.557971  -27.577432  20.42978  -0.445237  170.969643  52.966966  -124.239788  -31.204877  -5.913317  64.980968  40.501696  -8.590086  15.163114  -1.224946  -17.179922  14.615366  106.467099  49.202448  28.112262  -23.963548  -20.91526  -96.240565  75.790797  23.420237  12.648636  7.091022  -0.575118  11.0941  5.330747  -0.302749  8.328509  
0.0  93.25843  0.0  -1.300093  -22.096315  -94.373635  48.666256  -20.921651  -23.21016  4.208182  13.944728  24.871171  1.983247  2.26892  0.637379  2.452758  21.40155  14.122243  -30.479606  -1.902152  11.323311  2.442954  4.116717  -2.629392  4.733594  -0.48659  -0.563601  12.9507  -1.214088  -1.628933  12.950701  -1.214088  -1.628933  -27.772145  20.54245  -0.009124  168.085479  51.977737  -127.165115  -30.647587  -4.468935  64.16412  41.397237  -8.152267  15.90743  -0.565956  -17.717933  14.419938  105.587973  50.788808  27.319311  -24.30029  -22.414328  -94.819535  75.667643  23.779354  12.117083  6.289156  -0.755126  11.057715  4.732301  -0.452759  8.301979  
0.0  93.25843  0.0  -0.948407  -20.93596  -94.768578  48.24696  -19.102247  -21.921496  3.157447  13.140298  23.847986  2.54395  1.626236  0.898994  3.003942  22.378882  14.871324  -30.965539  -1.803295  12.297223  1.85289  4.438874  -2.533324  4.939773  -0.409442  -0.544344  13.511778  -1.002881  -1.564284  13.511778  -1.002881  -1.564284  -28.623839  20.872875  0.35131  165.45827  51.047542  -129.765288  -29.534347  -3.399601  63.544797  42.25869  -7.912058  16.802035  -0.314584  -18.06635  14.010714  104.784636  52.313261  26.704408  -25.022319  -23.145756  -93.180885  75.70628  24.213257  12.250308  5.259267  -0.794462  10.899465  3.960052  -0.502265  8.182023  
0.0  93.25843  0.0  -0.541892  -19.782594  -95.106144  47.984823  -17.478951  -20.732549  2.776232  11.852761  23.281205  2.212501  1.525628  1.154683  3.112079  23.485276  15.103584  -31.456147  -1.27105  13.774407  1.329703  4.809932  -2.580638  5.094529  -0.308783  -0.558811  13.93219  -0.72233  -1.584577  13.93219  -0.72233  -1.584577  -29.013716  21.205858  1.226126  163.162452  50.074518  -131.727955  -28.112362  -2.706551  63.152381  42.971615  -7.753635  17.725845  0.159174  -18.548757  13.724417  104.244089  53.661674  26.332737  -26.285838  -22.903507  -91.201663  75.860171  24.691373  13.117017  4.463585  -0.865002  10.861115  3.364261  -0.569661  8.152514  
0.0  93.25843  0.0  -0.16784  -18.510659  -95.448765  47.792191  -16.399164  -20.316316  1.97931  10.581628  24.526986  0.637618  2.375513  0.306528  2.440134  24.657086  14.889588  -31.836555  -0.111896  15.554208  1.247109  5.077769  -2.694115  5.222204  -0.234864  -0.552091  14.27916  -0.519684  -1.551589  14.279159  -0.519684  -1.551589  -29.416142  21.675486  2.013195  160.566683  49.130754  -133.685584  -26.993315  -2.419748  63.143096  43.382116  -7.560613  18.387666  0.505154  -18.847244  13.472697  104.318282  54.900615  26.355608  -26.735716  -23.227254  -89.768442  77.805118  25.020504  15.890862  3.747894  -0.779592  10.821489  2.825735  -0.518535  8.121133  
0.0  93.25843  0.0  0.165545  -17.289319  -96.029929  45.690899  -14.723123  -18.778842  0.827798  8.892029  24.484056  0.155004  2.606283  -0.137728  1.468944  25.848865  14.48643  -31.839498  1.543149  17.680979  1.410914  5.344415  -2.781732  5.324039  -0.188962  -0.492357  14.556058  -0.405597  -1.379797  14.556057  -0.405597  -1.379797  -29.61119  22.147428  2.731811  157.466485  48.1723  -135.899048  -26.534918  -2.306953  63.532756  43.552756  -7.227763  18.806399  0.814566  -18.892651  13.335637  105.001619  56.091375  26.640125  -28.71373  -22.415642  -87.445153  77.62101  25.317117  17.24146  3.160796  -0.647935  10.768931  2.382868  -0.430418  8.080218  
0.0  93.25843  0.0  0.38289  -16.153468  -96.56251  42.841956  -14.496254  -17.506032  0.679942  8.628394  24.177839  -0.025779  2.643685  -0.027465  0.401597  26.838554  13.623437  -31.174164  3.538236  20.246605  1.508513  5.552866  -2.807469  5.402157  -0.154309  -0.447724  14.768641  -0.319703  -1.251158  14.768642  -0.319703  -1.251158  -29.607899  22.319408  3.57327  154.597761  46.96531  -137.797916  -26.527231  -2.06638  64.08743  43.734009  -6.836229  19.218249  1.155804  -18.906256  13.388024  105.870431  57.149022  27.058053  -30.329463  -22.317673  -85.502956  77.175761  25.639258  18.198561  2.682103  -0.585716  10.744725  2.0226  -0.392277  8.061227  
0.0  93.25843  0.0  0.574347  -14.944317  -97.01892  39.953021  -14.353375  -16.128833  -0.62212  9.514828  22.918267  1.57876  2.284602  0.507093  -0.740765  27.531266  12.33546  -29.838302  5.71781  23.13753  1.391199  5.875772  -2.695284  5.435809  -0.13138  -0.424627  14.860096  -0.261921  -1.183378  14.860096  -0.261921  -1.183378  -29.492417  22.406508  4.29578  152.067617  45.619414  -139.468525  -26.609793  -1.637518  64.718525  43.994617  -6.474852  19.666044  1.547096  -18.775552  13.6396  106.229328  58.068704  27.102808  -31.250716  -22.989288  -84.126816  76.761552  25.998321  18.842933  2.302251  -0.514766  10.742998  1.736363  -0.34573  8.059268  
0.0  93.25843  0.0  0.824765  -13.778712  -97.429289  38.475468  -14.340652  -15.172893  -2.667775  10.778756  21.597045  3.574537  2.082585  1.243888  -1.809814  27.774564  10.770391  -27.712669  8.02381  26.066592  0.608256  6.692039  -2.380761  5.480643  -0.104876  -0.408707  14.982111  -0.192687  -1.134259  14.982112  -0.192687  -1.134259  -28.792149  22.199189  5.016729  149.269016  44.090077  -140.852271  -26.385891  -1.133666  65.413372  44.229822  -6.22391  20.111837  1.832135  -18.50401  13.949145  105.83331  58.897597  26.681212  -31.650605  -24.054669  -83.327386  76.28558  26.317237  19.129906  1.936304  -0.452972  10.805203  1.460772  -0.305605  8.105392  
